<svg id="visual" viewBox="0 0 900 675" width="900" height="675" xmlns="http://www.w3.org/2000/svg" xmlns:xlink="http://www.w3.org/1999/xlink" version="1.1"><rect x="0" y="0" width="900" height="675" fill="#16161a"></rect><path d="M0 230L21.5 225C43 220 86 210 128.8 210.8C171.7 211.7 214.3 223.3 257.2 232.7C300 242 343 249 385.8 256.5C428.7 264 471.3 272 514.2 264C557 256 600 232 642.8 222.3C685.7 212.7 728.3 217.3 771.2 229C814 240.7 857 259.3 878.5 268.7L900 278L900 0L878.5 0C857 0 814 0 771.2 0C728.3 0 685.7 0 642.8 0C600 0 557 0 514.2 0C471.3 0 428.7 0 385.8 0C343 0 300 0 257.2 0C214.3 0 171.7 0 128.8 0C86 0 43 0 21.5 0L0 0Z" fill="#645395"></path><path d="M0 208L21.5 212C43 216 86 224 128.8 227.8C171.7 231.7 214.3 231.3 257.2 229C300 226.7 343 222.3 385.8 220.7C428.7 219 471.3 220 514.2 215.3C557 210.7 600 200.3 642.8 194.2C685.7 188 728.3 186 771.2 178.7C814 171.3 857 158.7 878.5 152.3L900 146L900 0L878.5 0C857 0 814 0 771.2 0C728.3 0 685.7 0 642.8 0C600 0 557 0 514.2 0C471.3 0 428.7 0 385.8 0C343 0 300 0 257.2 0C214.3 0 171.7 0 128.8 0C86 0 43 0 21.5 0L0 0Z" fill="#513f84"></path><path d="M0 175L21.5 165.8C43 156.7 86 138.3 128.8 139C171.7 139.7 214.3 159.3 257.2 163.3C300 167.3 343 155.7 385.8 149.5C428.7 143.3 471.3 142.7 514.2 136.7C557 130.7 600 119.3 642.8 124.8C685.7 130.3 728.3 152.7 771.2 161.7C814 170.7 857 166.3 878.5 164.2L900 162L900 0L878.5 0C857 0 814 0 771.2 0C728.3 0 685.7 0 642.8 0C600 0 557 0 514.2 0C471.3 0 428.7 0 385.8 0C343 0 300 0 257.2 0C214.3 0 171.7 0 128.8 0C86 0 43 0 21.5 0L0 0Z" fill="#3d2c73"></path><path d="M0 92L21.5 98.3C43 104.7 86 117.3 128.8 116.7C171.7 116 214.3 102 257.2 93C300 84 343 80 385.8 82.3C428.7 84.7 471.3 93.3 514.2 94.7C557 96 600 90 642.8 87C685.7 84 728.3 84 771.2 90.7C814 97.3 857 110.7 878.5 117.3L900 124L900 0L878.5 0C857 0 814 0 771.2 0C728.3 0 685.7 0 642.8 0C600 0 557 0 514.2 0C471.3 0 428.7 0 385.8 0C343 0 300 0 257.2 0C214.3 0 171.7 0 128.8 0C86 0 43 0 21.5 0L0 0Z" fill="#3d2c73"></path><path d="M0 78L21.5 77.5C43 77 86 76 128.8 73.5C171.7 71 214.3 67 257.2 66.8C300 66.7 343 70.3 385.8 65.2C428.7 60 471.3 46 514.2 40.2C557 34.3 600 36.7 642.8 37C685.7 37.3 728.3 35.7 771.2 33.8C814 32 857 30 878.5 29L900 28L900 0L878.5 0C857 0 814 0 771.2 0C728.3 0 685.7 0 642.8 0C600 0 557 0 514.2 0C471.3 0 428.7 0 385.8 0C343 0 300 0 257.2 0C214.3 0 171.7 0 128.8 0C86 0 43 0 21.5 0L0 0Z" fill="#3d2c73"></path></svg>