<svg width="159" height="78" viewBox="0 0 159 78" fill="none" xmlns="http://www.w3.org/2000/svg">
<g filter="url(#filter0_d_322_716)">
<circle cx="10" cy="5" r="5" fill="#7F5AF0"/>
<circle cx="30" cy="5" r="5" fill="#7F5AF0"/>
<circle cx="50" cy="5" r="5" fill="#7F5AF0"/>
<circle cx="70" cy="5" r="5" fill="#7F5AF0"/>
<circle cx="90" cy="5" r="5" fill="#7F5AF0"/>
<circle cx="110" cy="5" r="5" fill="#7F5AF0"/>
<circle cx="130" cy="5" r="5" fill="#7F5AF0"/>
<circle cx="150" cy="5" r="5" fill="#7F5AF0"/>
<circle cx="10" cy="25" r="5" fill="#7F5AF0"/>
<circle cx="30" cy="25" r="5" fill="#7F5AF0"/>
<circle cx="50" cy="25" r="5" fill="#7F5AF0"/>
<circle cx="70" cy="25" r="5" fill="#7F5AF0"/>
<circle cx="90" cy="25" r="5" fill="#7F5AF0"/>
<circle cx="110" cy="25" r="5" fill="#7F5AF0"/>
<circle cx="130" cy="25" r="5" fill="#7F5AF0"/>
<circle cx="150" cy="25" r="5" fill="#7F5AF0"/>
<circle cx="10" cy="45" r="5" fill="#7F5AF0"/>
<circle cx="30" cy="45" r="5" fill="#7F5AF0"/>
<circle cx="50" cy="45" r="5" fill="#7F5AF0"/>
<circle cx="70" cy="45" r="5" fill="#7F5AF0"/>
<circle cx="90" cy="45" r="5" fill="#7F5AF0"/>
<circle cx="110" cy="45" r="5" fill="#7F5AF0"/>
<circle cx="130" cy="45" r="5" fill="#7F5AF0"/>
<circle cx="150" cy="45" r="5" fill="#7F5AF0"/>
<circle cx="9" cy="65" r="5" fill="#7F5AF0"/>
<circle cx="29" cy="65" r="5" fill="#7F5AF0"/>
<circle cx="49" cy="65" r="5" fill="#7F5AF0"/>
<circle cx="69" cy="65" r="5" fill="#7F5AF0"/>
<circle cx="89" cy="65" r="5" fill="#7F5AF0"/>
<circle cx="109" cy="65" r="5" fill="#7F5AF0"/>
<circle cx="129" cy="65" r="5" fill="#7F5AF0"/>
<circle cx="149" cy="65" r="5" fill="#7F5AF0"/>
</g>
<defs>
<filter id="filter0_d_322_716" x="0" y="0" width="159" height="78" filterUnits="userSpaceOnUse" color-interpolation-filters="sRGB">
<feFlood flood-opacity="0" result="BackgroundImageFix"/>
<feColorMatrix in="SourceAlpha" type="matrix" values="0 0 0 0 0 0 0 0 0 0 0 0 0 0 0 0 0 0 127 0" result="hardAlpha"/>
<feOffset dy="4"/>
<feGaussianBlur stdDeviation="2"/>
<feComposite in2="hardAlpha" operator="out"/>
<feColorMatrix type="matrix" values="0 0 0 0 0 0 0 0 0 0 0 0 0 0 0 0 0 0 0.25 0"/>
<feBlend mode="normal" in2="BackgroundImageFix" result="effect1_dropShadow_322_716"/>
<feBlend mode="normal" in="SourceGraphic" in2="effect1_dropShadow_322_716" result="shape"/>
</filter>
</defs>
</svg>
