<svg width="25" height="25" viewBox="0 0 25 25" fill="none" xmlns="http://www.w3.org/2000/svg">
<path d="M24.0827 0.918152C23.7092 0.54015 23.2445 0.26486 22.7335 0.118878C22.2225 -0.0271036 21.6825 -0.0388418 21.1656 0.0847975L4.49677 3.5953C3.53682 3.72694 2.6327 4.12394 1.88621 4.74159C1.13973 5.35925 0.580533 6.17303 0.271598 7.09129C-0.0373367 8.00955 -0.0837382 8.99582 0.137619 9.93902C0.358976 10.8822 0.8393 11.7449 1.5245 12.4299L3.31432 14.2185C3.41119 14.3153 3.48801 14.4303 3.54039 14.5569C3.59277 14.6834 3.61967 14.819 3.61957 14.956V18.2561C3.62187 18.7201 3.72869 19.1776 3.93211 19.5947L3.92377 19.6019L3.95086 19.629C4.25612 20.2427 4.7547 20.7391 5.3698 21.0416L5.39688 21.0687L5.40418 21.0603C5.82128 21.2637 6.27884 21.3705 6.7429 21.3728H10.0433C10.3195 21.3726 10.5844 21.482 10.7799 21.677L12.5687 23.4656C13.0484 23.9506 13.6195 24.3359 14.2489 24.5993C14.8783 24.8626 15.5535 24.9988 16.2358 25C16.8044 24.9993 17.3691 24.9064 17.9079 24.725C18.8179 24.4262 19.6262 23.8792 20.2418 23.1455C20.8574 22.4118 21.2556 21.5208 21.3917 20.5728L24.9078 3.86927C25.0379 3.34805 25.0302 2.80197 24.8855 2.28461C24.7409 1.76724 24.4642 1.29636 24.0827 0.918152ZM4.78951 12.7476L2.99865 10.959C2.58164 10.5521 2.28936 10.0347 2.15613 9.46749C2.0229 8.90029 2.05424 8.30687 2.24647 7.75686C2.43284 7.1926 2.77738 6.69374 3.2391 6.3196C3.70082 5.94546 4.26029 5.7118 4.85098 5.64639L21.3542 2.17235L5.70109 17.8259V14.956C5.70267 14.5459 5.62292 14.1396 5.46645 13.7605C5.30998 13.3815 5.0799 13.0372 4.78951 12.7476ZM19.3446 20.2165C19.2646 20.7919 19.0258 21.3336 18.655 21.7808C18.2842 22.228 17.7961 22.563 17.2455 22.7482C16.6948 22.9334 16.1035 22.9615 15.5377 22.8294C14.972 22.6972 14.4543 22.41 14.0428 21.9999L12.2509 20.2082C11.9617 19.9174 11.6176 19.6869 11.2387 19.5299C10.8598 19.3729 10.4535 19.2926 10.0433 19.2936H7.17316L22.8284 3.6453L19.3446 20.2165Z" fill="white"/>
</svg>
