<svg id="visual" viewBox="0 0 900 600" width="900" height="600" xmlns="http://www.w3.org/2000/svg" xmlns:xlink="http://www.w3.org/1999/xlink" version="1.1"><rect x="0" y="0" width="900" height="600" fill="#16161a"></rect><path d="M0 250L21.5 254.7C43 259.3 86 268.7 128.8 272.8C171.7 277 214.3 276 257.2 265.8C300 255.7 343 236.3 385.8 228C428.7 219.7 471.3 222.3 514.2 218.2C557 214 600 203 642.8 200.3C685.7 197.7 728.3 203.3 771.2 215.8C814 228.3 857 247.7 878.5 257.3L900 267L900 0L878.5 0C857 0 814 0 771.2 0C728.3 0 685.7 0 642.8 0C600 0 557 0 514.2 0C471.3 0 428.7 0 385.8 0C343 0 300 0 257.2 0C214.3 0 171.7 0 128.8 0C86 0 43 0 21.5 0L0 0Z" fill="#645395"></path><path d="M0 217L21.5 215.7C43 214.3 86 211.7 128.8 200.2C171.7 188.7 214.3 168.3 257.2 169.3C300 170.3 343 192.7 385.8 196.3C428.7 200 471.3 185 514.2 182.3C557 179.7 600 189.3 642.8 196.5C685.7 203.7 728.3 208.3 771.2 213.5C814 218.7 857 224.3 878.5 227.2L900 230L900 0L878.5 0C857 0 814 0 771.2 0C728.3 0 685.7 0 642.8 0C600 0 557 0 514.2 0C471.3 0 428.7 0 385.8 0C343 0 300 0 257.2 0C214.3 0 171.7 0 128.8 0C86 0 43 0 21.5 0L0 0Z" fill="#513f84"></path><path d="M0 174L21.5 167.3C43 160.7 86 147.3 128.8 148.8C171.7 150.3 214.3 166.7 257.2 172.2C300 177.7 343 172.3 385.8 169.2C428.7 166 471.3 165 514.2 162.7C557 160.3 600 156.7 642.8 150.5C685.7 144.3 728.3 135.7 771.2 135.3C814 135 857 143 878.5 147L900 151L900 0L878.5 0C857 0 814 0 771.2 0C728.3 0 685.7 0 642.8 0C600 0 557 0 514.2 0C471.3 0 428.7 0 385.8 0C343 0 300 0 257.2 0C214.3 0 171.7 0 128.8 0C86 0 43 0 21.5 0L0 0Z" fill="#3D2C73"></path><path d="M0 92L21.5 87.8C43 83.7 86 75.3 128.8 74.7C171.7 74 214.3 81 257.2 92.2C300 103.3 343 118.7 385.8 124.2C428.7 129.7 471.3 125.3 514.2 124.2C557 123 600 125 642.8 124C685.7 123 728.3 119 771.2 118.8C814 118.7 857 122.3 878.5 124.2L900 126L900 0L878.5 0C857 0 814 0 771.2 0C728.3 0 685.7 0 642.8 0C600 0 557 0 514.2 0C471.3 0 428.7 0 385.8 0C343 0 300 0 257.2 0C214.3 0 171.7 0 128.8 0C86 0 43 0 21.5 0L0 0Z" fill="#3D2C73"></path><path d="M0 59L21.5 61.2C43 63.3 86 67.7 128.8 64C171.7 60.3 214.3 48.7 257.2 49C300 49.3 343 61.7 385.8 64.8C428.7 68 471.3 62 514.2 57.5C557 53 600 50 642.8 51.2C685.7 52.3 728.3 57.7 771.2 60.7C814 63.7 857 64.3 878.5 64.7L900 65L900 0L878.5 0C857 0 814 0 771.2 0C728.3 0 685.7 0 642.8 0C600 0 557 0 514.2 0C471.3 0 428.7 0 385.8 0C343 0 300 0 257.2 0C214.3 0 171.7 0 128.8 0C86 0 43 0 21.5 0L0 0Z" fill="#3D2C73"></path></svg>